<?xml version="1.0" encoding="UTF-8" standalone="no"?>
<!-- Created with Inkscape (http://www.inkscape.org/) -->

<svg
   xmlns:dc="http://purl.org/dc/elements/1.1/"
   xmlns:cc="http://creativecommons.org/ns#"
   xmlns:rdf="http://www.w3.org/1999/02/22-rdf-syntax-ns#"
   xmlns:svg="http://www.w3.org/2000/svg"
   xmlns="http://www.w3.org/2000/svg"
   xmlns:sodipodi="http://sodipodi.sourceforge.net/DTD/sodipodi-0.dtd"
   xmlns:inkscape="http://www.inkscape.org/namespaces/inkscape"
   width="210mm"
   height="297mm"
   viewBox="0 0 210 297"
   version="1.1"
   id="svg8"
   inkscape:version="0.92.3 (2405546, 2018-03-11)"
   sodipodi:docname="promise.svg">
  <defs
     id="defs2" />
  <sodipodi:namedview
     id="base"
     pagecolor="#ffffff"
     bordercolor="#666666"
     borderopacity="1.0"
     inkscape:pageopacity="0.0"
     inkscape:pageshadow="2"
     inkscape:zoom="1.5533058"
     inkscape:cx="327.85714"
     inkscape:cy="350.78332"
     inkscape:document-units="mm"
     inkscape:current-layer="layer1"
     showgrid="false"
     inkscape:window-width="1366"
     inkscape:window-height="706"
     inkscape:window-x="-8"
     inkscape:window-y="-8"
     inkscape:window-maximized="1"
     inkscape:snap-bbox="true"
     inkscape:snap-bbox-edge-midpoints="true"
     inkscape:snap-global="true" />
  <metadata
     id="metadata5">
    <rdf:RDF>
      <cc:Work
         rdf:about="">
        <dc:format>image/svg+xml</dc:format>
        <dc:type
           rdf:resource="http://purl.org/dc/dcmitype/StillImage" />
        <dc:title />
      </cc:Work>
    </rdf:RDF>
  </metadata>
  <g
     inkscape:label="Layer 1"
     inkscape:groupmode="layer"
     id="layer1">
    <path
       style="fill:none;stroke:#000000;stroke-width:0.26458332;stroke-opacity:1"
       d="m 119.33585,241.40794 c 0,3.2474 -15.40631,5.87993 -34.410954,5.87993 -19.004646,0 -34.410955,-2.63253 -34.410953,-5.87993"
       id="path10"
       inkscape:connector-curvature="0"
       sodipodi:nodetypes="csc" />
    <path
       style="fill:none;stroke:#000000;stroke-width:0.26458332;stroke-opacity:1"
       d="m 50.513943,241.40794 c 0,-2.95218 2.393213,-5.34539 5.34539,-5.34539"
       id="path3702"
       inkscape:connector-curvature="0"
       sodipodi:nodetypes="cc" />
    <path
       sodipodi:nodetypes="cc"
       inkscape:connector-curvature="0"
       id="path3705"
       d="m 119.33585,241.40794 c 0,-2.95218 -2.39321,-5.34539 -5.34539,-5.34539"
       style="fill:none;stroke:#000000;stroke-width:0.26458332;stroke-opacity:1" />
    <path
       style="fill:none;stroke:#000000;stroke-width:0.99999994"
       d="m 211.12189,892.20491 c 0,0 -13.9496,-51.87683 -17.38228,-136.62499 -3.78552,-93.45936 20.04564,-99.28524 20.04564,-99.28524 l -8.66909,-36.85693 c 0,0 36.18888,16.12223 42.83396,18.50893 19.30677,-10.2345 36.5471,-14.68779 72.0148,-14.17725"
       id="rect3759"
       transform="scale(0.26458333)"
       inkscape:connector-curvature="0"
       sodipodi:nodetypes="cscccc" />
    <path
       sodipodi:nodetypes="cscccc"
       inkscape:connector-curvature="0"
       id="path3779"
       d="m 113.99046,236.06255 c 0,0 3.1558,-13.72575 4.06403,-36.1487 1.00159,-24.72779 -5.30374,-26.26922 -5.30374,-26.26922 l 2.2937,-9.75173 c 0,0 -9.57498,4.26568 -11.33315,4.89716 -5.108246,-2.70788 -9.669754,-3.88615 -19.053916,-3.75107"
       style="fill:none;stroke:#000000;stroke-width:0.26458332" />
    <path
       style="fill:none;stroke:#000000;stroke-width:0.17631179"
       inkscape:transform-center-y="-2.0835319"
       d="m 84.253398,177.321 1.934878,6.04225 0.07962,6.14641 -2.756601,2.39587 -2.509232,-2.6042 0.821723,-6.14641 z"
       id="path3781"
       inkscape:connector-curvature="0"
       sodipodi:nodetypes="ccccccc"
       inkscape:transform-center-x="-1.993657e-006" />
    <circle
       style="fill:none;stroke:#000000;stroke-width:0.17723677"
       id="path3784"
       cx="67.197411"
       cy="178.38635"
       r="3.1948829" />
    <circle
       r="3.1948829"
       cy="178.38635"
       cx="101.60521"
       id="circle3786"
       style="fill:none;stroke:#000000;stroke-width:0.17723677" />
    <path
       style="fill:none;stroke:#000000;stroke-width:0.26458332px;stroke-linecap:butt;stroke-linejoin:miter;stroke-opacity:1"
       d="m 62.342841,206.38144 c 0,-0.51101 0,-1.02202 0,-1.53302 0,-0.17034 0.05387,-0.34941 0,-0.51101 -0.06473,-0.19421 -0.275931,-0.31679 -0.340669,-0.51101 -0.05387,-0.16159 0,-0.34067 0,-0.511 0,-0.45423 0,-0.90846 0,-1.36269 0,-0.0951 0.02598,-0.7737 0,-0.85168 -0.0254,-0.0762 -0.134427,-0.0985 -0.170336,-0.17033 -0.0254,-0.0508 0,-0.11356 0,-0.17034 0,-0.0568 0,-0.11355 0,-0.17033 0,-0.2839 0,-0.56779 0,-0.85168 0,-0.96524 0,-1.93047 0,-2.89571 0,-0.1462 -0.03022,-1.27202 0,-1.36268 0.0254,-0.0762 0.113556,-0.11356 0.170336,-0.17034 0.05678,-0.0568 0.09851,-0.13442 0.170336,-0.17033 0.05078,-0.0254 0.130185,0.0401 0.170333,0 0.0803,-0.0803 -0.113556,-0.34068 0,-0.34068 0.0803,0 0.09852,0.13443 0.170336,0.17034 0.181692,0.0908 0.227685,-0.16862 0.340673,0.17034 0,0.77541 -0.0803,0.01 0.170336,0.511 0.0254,0.0508 -0.04724,0.13884 0,0.17034 0.120584,0.51936 0.471953,0.0656 0.681342,0.17033 0.04523,0.0226 0.488394,0.46578 0.511008,0.51101 0.0254,0.0508 -0.04015,0.13019 0,0.17034 0.227113,0.22711 0.163446,-0.36134 0.340669,0.17033 0.03591,0.10773 -0.03591,0.23294 0,0.34067 0.05079,0.15236 0.268851,0.19703 0.340673,0.34067 0.0254,0.0508 0,0.11356 0,0.17034 0.113556,0.11356 0.251589,0.20705 0.340669,0.34067 0.0315,0.0472 0,0.11356 0,0.17034 0,0.11355 -0.05078,0.2391 0,0.34067 0.0254,0.0508 0.144944,-0.0508 0.170336,0 0.05078,0.10157 -0.03591,0.23294 0,0.34067 0.05078,0.15235 0.268851,0.19703 0.340672,0.34067 0.0254,0.0508 -0.04015,0.13019 0,0.17034 0.04015,0.0401 0.130189,-0.0402 0.170337,0 0.04015,0.0401 -0.04015,0.13018 0,0.17033 0.04015,0.0402 0.113556,0 0.170336,0 0.209764,0 0.315277,0.0254 0.511005,-0.17033 0.04015,-0.0402 -0.0254,-0.11955 0,-0.17034 0.210484,-0.42097 0.170336,0.0588 0.170336,-0.34067 0,-0.16475 -0.02527,-0.97149 0,-1.02201 0.03591,-0.0718 0.134425,-0.0985 0.170337,-0.17034 0.05457,-0.10915 -0.05289,-0.91623 0,-1.02201 0.03591,-0.0718 0.134424,-0.0985 0.170336,-0.17034 0.06813,-0.13627 -0.06814,-0.37474 0,-0.51101 0.07182,-0.14364 0.268851,-0.19703 0.340669,-0.34067 0.0254,-0.0508 0,-0.11355 0,-0.17033 0,-0.16043 -0.0323,-0.75478 0,-0.85168 0.0254,-0.0762 0.09852,-0.13443 0.170336,-0.17034 0.05078,-0.0254 0.113557,0 0.170336,0 0.113557,0 0.227113,0 0.34067,0 0.06256,0 0.674489,-0.007 0.681344,0 0.08977,0.0898 0.09991,0.23504 0.170336,0.34067 0.131027,0.19655 0.379979,0.31447 0.511006,0.51101 0.07042,0.10564 0.09991,0.23503 0.170336,0.34067 0.04454,0.0668 0.113557,0.11356 0.170336,0.17034 0.113557,0.11355 0.212196,0.24431 0.34067,0.34067 0.101568,0.0762 0.235035,0.0999 0.340672,0.17034 0.06681,0.0445 0.106098,0.12215 0.170336,0.17033 0.163775,0.12283 0.36625,0.19592 0.511006,0.34067 0.0803,0.0803 -0.06299,0.24619 0,0.34067 0.775417,0.77542 0.09004,-0.0705 0.340672,0.68135 0.114562,0.34368 0.34073,1.1e-4 0.511006,0.34067 0.0254,0.0508 -0.0254,0.11955 0,0.17033 0.03591,0.0718 0.134427,0.0985 0.170336,0.17034 0.0254,0.0508 -0.04015,0.13019 0,0.17033 0.04015,0.0402 0.144944,-0.0508 0.170336,0 0.05078,0.10157 -0.0803,0.26038 0,0.34068 0.265483,0.26548 0.535398,-0.24338 0.681342,-0.34068 0.105637,-0.0704 0.250896,-0.0806 0.340672,-0.17033 0.04015,-0.0401 -0.0254,-0.11955 0,-0.17034 0.03591,-0.0718 0.113556,-0.11355 0.170336,-0.17033 0.05678,-0.0568 0.113557,-0.11356 0.170336,-0.17034 0.113557,-0.11355 0.207047,-0.25159 0.34067,-0.34067 0.09449,-0.063 0.260373,0.0803 0.340672,0 0.04015,-0.0402 -0.0254,-0.11955 0,-0.17034 0.05164,-0.10327 0.626628,-0.60839 0.681342,-0.68134 0.07618,-0.10157 0.08056,-0.25089 0.170336,-0.34067 0.08977,-0.0898 0.250896,-0.0806 0.340672,-0.17033 0.04015,-0.0401 -0.04015,-0.13019 0,-0.17034 0.04015,-0.0402 0.130186,0.0401 0.170336,0 0.0803,-0.0803 -0.05079,-0.2391 0,-0.34067 0.03591,-0.0718 0.134424,-0.0985 0.170333,-0.17034 0.02397,-0.0479 0,-1.06214 0,-1.19235 0,-0.0568 0,-0.11355 0,-0.17033 0,-0.0568 -0.05678,-0.17034 0,-0.17034 0.05678,0 -0.04015,0.21049 0,0.17034 0.08978,-0.0898 0.09416,-0.23911 0.170337,-0.34067 0.790098,-1.05347 0.03537,-0.10286 0.511008,-0.34067 0.09732,-0.0487 0.345144,-0.50654 0.511006,-0.34068 0.02103,0.021 0,0.57453 0,0.68135 0,0.45423 0,0.90845 0,1.36268 0,0.12151 -0.03144,0.72594 0,0.85168 0.04355,0.17419 0.09004,0.35041 0.170336,0.51101 0.03591,0.0718 0.113556,0.11356 0.170336,0.17033 0.227113,0.22712 0.454228,0.45423 0.681342,0.68134 0.05678,0.0568 0.09851,0.13443 0.170336,0.17034 0.05078,0.0254 0.115252,-0.0138 0.170336,0 0.174188,0.0435 0.350411,0.09 0.511005,0.17034 0.376622,0.18831 0.05286,0.10571 0.170336,0.34067 0.159788,0.31957 0.218515,0.0728 0.511006,0.17033 0.07618,0.0254 0.09416,0.14495 0.170336,0.17034 0.107731,0.0359 0.232942,-0.0359 0.340672,0 0.151612,0.0505 0.359395,0.46047 0.511006,0.51101 0.107731,0.0359 0.227116,0 0.340672,0 0.113557,0 0.239104,0.0508 0.340673,0 0.05078,-0.0254 -0.04015,-0.13019 0,-0.17034 0.04015,-0.0402 0.123092,0.0315 0.170336,0 0.168296,-0.1122 0.661741,-0.66174 0.851677,-0.85168 0.08907,-0.0891 0.658948,-0.61416 0.681342,-0.68134 0.02082,-0.0625 0,-0.99279 0,-1.02201 0,-0.0568 0,-0.11356 0,-0.17034 0,-0.0568 -0.0254,-0.11955 0,-0.17034 0.03591,-0.0718 0.134427,-0.0985 0.170336,-0.17033 0.0254,-0.0508 0,-0.11356 0,-0.17034 0,-0.0568 0,-0.11355 0,-0.17033 0,-0.14422 -0.03053,-0.58977 0,-0.68135 0.0254,-0.0762 0.113557,-0.11355 0.170336,-0.17033 0.05678,-0.0568 0.09852,-0.13443 0.170334,-0.17034 0.05078,-0.0254 0.130188,0.0401 0.170336,0 0.04015,-0.0402 -0.04015,-0.13018 0,-0.17033 0.04015,-0.0402 0.119552,0.0254 0.170336,0 0.07182,-0.0359 0.113557,-0.11356 0.170336,-0.17034 0.113557,0 0.232942,0.0359 0.340672,0 0.07618,-0.0254 0.134425,-0.0985 0.170334,-0.17033 0.0254,-0.0508 -0.05678,-0.17034 0,-0.17034 0.05678,0 0,0.11356 0,0.17034 0,0.0568 0,0.11355 0,0.17033 0,0.11356 -0.06813,0.24983 0,0.34067 0.122833,0.16378 0.388178,0.1769 0.511008,0.34067 0.06813,0.0909 -0.04217,0.23524 0,0.34068 0.07603,0.19007 0.249119,0.3279 0.34067,0.511 0.0254,0.0508 -0.04015,0.13019 0,0.17034 0.08978,0.0898 0.235034,0.0999 0.340672,0.17033 0.234331,0.15622 0.175186,0.26278 0.340672,0.51101 0.08908,0.13362 0.268851,0.19703 0.34067,0.34067 0.05078,0.10157 -0.06299,0.24619 0,0.34067 0.08908,0.13363 0.251589,0.20705 0.340672,0.34067 0.06299,0.0945 -0.05078,0.23911 0,0.34068 0.03591,0.0718 0.134427,0.0985 0.170336,0.17033 0.0254,0.0508 -0.04015,0.13019 0,0.17034 0.08978,0.0898 0.250896,0.0806 0.340672,0.17033 0.35243,0.35243 -0.538562,-0.0138 0.170334,0.34067 0.0016,8e-4 0.988033,0.0136 1.022014,0 0.190076,-0.076 0.327903,-0.24911 0.511008,-0.34067 0.160594,-0.0803 0.3649,-0.066 0.511006,-0.17033 0.261363,-0.18669 0.439623,-0.46984 0.681344,-0.68135 0.213651,-0.18694 0.4806,-0.31026 0.681342,-0.511 0.08977,-0.0898 0.113556,-0.22711 0.170336,-0.34067 0.227113,-0.22712 0.434599,-0.47572 0.681342,-0.68135 0.09753,-0.0813 0.239104,-0.0942 0.340672,-0.17033 0.128474,-0.0964 0.207047,-0.25159 0.340669,-0.34067 0.04724,-0.0315 0.113557,0 0.170336,0 0.250632,0 0.130189,0.0401 0.340673,-0.17034 0.399468,-0.39947 -0.04015,0.12045 0.170336,-0.51101 0.177223,-0.53167 0.113556,0.0568 0.340669,-0.17033 0.0803,-0.0803 -0.05078,-0.2391 0,-0.34067 0.0554,-0.1108 0.1997,-0.24082 0.340673,-0.17034 0.262067,0.13104 0.170336,0.4497 0.170336,0.68134 0,0.34068 0,0.68135 0,1.02202 0,0.0568 -0.0315,0.12309 0,0.17033 0.08908,0.13363 0.268851,0.19704 0.340669,0.34068 0.06208,0.12414 -0.05,0.82199 0,1.02201 0.04355,0.17419 0.135123,0.33494 0.170336,0.51101 0.02228,0.11135 0,0.22711 0,0.34067 0,0.11355 0.04473,0.23629 0,0.34067 -0.150037,0.35008 -0.369551,0.66837 -0.511005,1.02201 -0.02982,0.0746 0.107632,-0.12017 0.170336,-0.17033 0.221681,-0.17735 0.450329,-0.346 0.681342,-0.51101 0.166584,-0.11899 0.347231,-0.21784 0.511005,-0.34067 0.190778,-0.14308 0.320231,-0.36793 0.511009,-0.51101 0.08578,-0.37527 0.350411,-0.09 0.511005,-0.17033 0.07182,-0.0359 0.113557,-0.11356 0.170336,-0.17034 0.05678,-0.0568 0.125796,-0.10352 0.170336,-0.17034 0.07043,-0.10563 0.08056,-0.25089 0.170336,-0.34067 0.04015,-0.0401 0.11647,0.018 0.170337,0 0.120443,-0.0401 0.220223,-0.13018 0.340669,-0.17033 0.05387,-0.018 0.115253,0.0138 0.170336,0 0.174189,-0.0436 0.336817,-0.12679 0.511006,-0.17034 0.05508,-0.0138 0.130188,0.0402 0.170336,0 0.04015,-0.0401 -0.03149,-0.12309 0,-0.17033 0.658416,-0.98762 0.08193,-0.12614 0.511008,-0.34067 0.07182,-0.0359 0.113557,-0.11356 0.170336,-0.17034 0.05678,-0.0568 0.134425,-0.0985 0.170334,-0.17034 0.0254,-0.0508 -0.04015,-0.13018 0,-0.17033 0.04015,-0.0401 0.123095,0.0315 0.170336,0 0.113556,-0.11356 0.227116,-0.22711 0.340672,-0.34067 0.05678,0 0.119552,0.0254 0.170336,0 0.07182,-0.0359 0.09852,-0.13443 0.170336,-0.17034 0.05078,-0.0254 0.144941,-0.0508 0.170331,0 0.0246,0.0491 0,0.91315 0,1.02202 0,0.11355 0,0.22711 0,0.34067 0,0.11356 -0.0275,0.2305 0,0.34067 0.0308,0.12317 0.13019,0.22022 0.17034,0.34067 0.0444,0.13322 -0.053,0.77216 0,0.85168 0.0891,0.13362 0.25159,0.20705 0.34067,0.34067 0.0315,0.0472 0,0.11356 0,0.17033 0,0.0568 0,0.11356 0,0.17034 0,0.17034 0,0.34067 0,0.51101 0,0.17097 -0.0508,0.57078 0.17034,0.68134 0.15235,0.0762 0.34575,0.0413 0.511,0 0.18403,-0.046 0.49666,-0.82298 0.51101,-0.85168 0.19815,-0.3963 0.20269,-0.44058 0.51101,-0.85168 0.0482,-0.0642 0.11355,-0.11355 0.17033,-0.17033 0.11356,-0.11356 0.20705,-0.25159 0.34068,-0.34067 0.0472,-0.0315 0.12309,0.0315 0.17033,0 0.13362,-0.0891 0.22711,-0.22712 0.34067,-0.34068 0.0568,-0.0568 0.1258,-0.10352 0.17034,-0.17033 0.0704,-0.10564 0.0942,-0.2391 0.17033,-0.34067 0.0964,-0.12848 0.22712,-0.22711 0.34067,-0.34067 0.0568,-0.0568 0.0985,-0.13443 0.17034,-0.17034 0.23495,-0.11748 0.15236,0.20629 0.34067,-0.17033 0.0254,-0.0508 -0.0254,-0.11956 0,-0.17034 0.0359,-0.0718 0.13443,-0.0985 0.17034,-0.17034 0.0508,-0.10156 -0.0803,-0.26037 0,-0.34067 0.0401,-0.0402 0.11355,0 0.17033,0 0.11356,0 0.22712,0 0.34067,0 0.32373,0 0.47817,-0.0657 0.68134,0.34067 0.0762,0.15236 0,0.34068 0,0.51101 0,0.34067 0,0.68134 0,1.02201 0,0.0568 0.0315,0.1231 0,0.17034 -0.0891,0.13362 -0.25159,0.20705 -0.34067,0.34067 -0.0373,0.056 0,0.7554 0,0.85168 0,0.68134 0,1.36269 0,2.04403 0,0.28389 0,0.56778 0,0.85168 0,0.0568 0,0.11355 0,0.17033 0,0.0568 0.0254,0.11955 0,0.17034 -0.0359,0.0718 -0.13442,0.0985 -0.17033,0.17033 -0.0508,0.10157 0.063,0.24619 0,0.34067 -0.0891,0.13363 -0.25159,0.20705 -0.34067,0.34068 -0.0315,0.0472 0,0.11355 0,0.17033 0,0.11356 0.0359,0.23294 0,0.34067 -0.0254,0.0762 -0.13443,0.0985 -0.17034,0.17034 -0.0338,0.0675 0.0348,0.47618 0,0.51101 -0.0401,0.0401 -0.17033,0.0568 -0.17033,0 0,-0.0568 0.19572,-0.0508 0.17033,0 -0.0718,0.14364 -0.25159,0.20704 -0.34067,0.34067 -0.0315,0.0472 0,0.11355 0,0.17033 0,0.0568 0,0.11356 0,0.17034 0,0.11355 0,0.22711 0,0.34067 0,0.17033 0.0413,0.34575 0,0.51101 -0.0389,0.1558 -0.26885,0.19703 -0.34067,0.34067 -0.0254,0.0508 0,0.11355 0,0.17033 0,0.11356 0.0359,0.23294 0,0.34067 -0.0508,0.15236 -0.26885,0.19704 -0.34067,0.34068 -0.0254,0.0508 0,0.11355 0,0.17033 0,0.11356 0,0.22711 0,0.34067 0,0.27082 0.0447,0.79842 0,1.02202 -0.0249,0.12449 -0.13019,0.22022 -0.17034,0.34067 -0.018,0.0539 0,0.11355 0,0.17033 -0.0568,0.17034 -0.09,0.35042 -0.17033,0.51101 -0.0359,0.0718 -0.13443,0.0985 -0.17034,0.17034 -0.0254,0.0508 0,0.11355 0,0.17033 0,0.11356 0.0359,0.23294 0,0.34067 -0.0254,0.0762 -0.11356,0.11356 -0.17034,0.17034 -0.0568,0.0568 -0.0942,0.14494 -0.17033,0.17033 -0.10773,0.0359 -0.23294,-0.0359 -0.34067,0 -0.15235,0.0508 -0.19703,0.26885 -0.34067,0.34068 -0.0508,0.0254 -0.13019,-0.0402 -0.17034,0 -0.0401,0.0401 0.0254,0.11954 0,0.17033 -0.0226,0.0452 -0.46578,0.48839 -0.511,0.51101 -0.27254,0.13627 -0.12492,-0.0795 -0.17034,-0.17034 -0.19436,-0.38872 -0.38353,-0.46925 -0.51101,-0.85168 -0.0359,-0.10773 0.0803,-0.26037 0,-0.34067 -0.0401,-0.0401 -0.13018,0.0402 -0.17033,0 -0.0401,-0.0401 0.0138,-0.11525 0,-0.17033 -0.0435,-0.17419 -0.0707,-0.36162 -0.17034,-0.51101 -0.0315,-0.0472 -0.11955,0.0254 -0.17033,0 -0.0718,-0.0359 -0.1258,-0.10352 -0.17034,-0.17034 -0.45423,-0.68134 0.17034,-0.0568 -0.511007,-0.511 -0.06681,-0.0445 -0.09578,-0.14052 -0.170336,-0.17034 -0.21736,-0.0869 -0.471953,-0.0656 -0.681342,-0.17033 -0.05078,-0.0254 0.03149,-0.1231 0,-0.17034 -0.113559,-0.11356 -0.227115,-0.22711 -0.340672,-0.34067 -0.05678,0 -0.123092,0.0315 -0.170336,0 -0.133622,-0.0891 -0.227113,-0.22712 -0.340672,-0.34067 -0.05678,-0.0568 -0.134424,-0.0985 -0.170334,-0.17034 -0.06814,-0.13627 0.06813,-0.37474 0,-0.511 -0.05678,-0.11356 -0.300524,0.0499 -0.340672,0.17033 -0.03591,0.10773 0.05078,0.2391 0,0.34067 -0.07182,0.14364 -0.251589,0.20705 -0.340672,0.34067 -0.03149,0.0472 0.01378,0.11526 0,0.17034 -0.04354,0.17419 -0.135123,0.33494 -0.170333,0.51101 -0.02228,0.11135 0.05078,0.2391 0,0.34067 -0.170337,0.34067 -0.340673,0.2555 -0.511009,0.511 -0.07042,0.10564 -0.09991,0.23504 -0.170336,0.34068 -0.08908,0.13362 -0.268851,0.19703 -0.340669,0.34067 -0.0254,0.0508 0,0.11355 0,0.17033 -0.05678,0.11356 -0.09416,0.2391 -0.170336,0.34067 -0.09636,0.12848 -0.25159,0.20705 -0.340673,0.34068 -0.0315,0.0472 0.04015,0.13018 0,0.17033 -0.04015,0.0401 -0.113556,0 -0.170336,0 -0.05678,0 -0.116469,0.018 -0.170336,0 -0.529931,-0.17664 -0.208187,-0.10725 -0.511006,-0.51101 -0.09636,-0.12847 -0.244316,-0.21219 -0.340672,-0.34067 -0.07618,-0.10157 -0.09102,-0.24153 -0.170333,-0.34067 -0.250807,-0.31351 -0.610788,-0.53049 -0.851681,-0.85168 -0.07618,-0.10156 -0.09991,-0.23503 -0.170333,-0.34067 -0.07552,-0.11327 -0.485696,-0.40975 -0.511009,-0.511 -0.04131,-0.16526 0.04131,-0.34576 0,-0.51101 -0.03895,-0.1558 -0.268851,-0.19704 -0.340672,-0.34067 -0.0254,-0.0508 0,-0.11356 0,-0.17034 -0.113556,-0.11356 -0.227113,-0.22711 -0.340669,-0.34067 -0.05678,-0.0568 -0.134427,-0.0985 -0.170336,-0.17034 -0.04545,-0.0909 0.04544,-0.24978 0,-0.34067 -0.03591,-0.0718 -0.113557,-0.11356 -0.170336,-0.17033 -0.05678,-0.0568 -0.09004,-0.17034 -0.170337,-0.17034 -0.0803,0 -0.113556,0.11356 -0.170336,0.17034 -0.05678,0.0568 -0.125793,0.10352 -0.170333,0.17033 -0.07043,0.10564 -0.113559,0.22712 -0.170336,0.34067 -0.113557,0.22712 -0.227116,0.45423 -0.340672,0.68135 -0.05678,0.11355 -0.130186,0.22022 -0.170337,0.34067 -0.07403,0.22209 -0.06564,0.47195 -0.170333,0.68134 -0.0254,0.0508 -0.119552,-0.0254 -0.170336,0 -0.07182,0.0359 -0.125796,0.10353 -0.170336,0.17034 -0.05678,0.11355 -0.113557,0.22711 -0.170336,0.34067 0,0.0568 0.0254,0.11955 0,0.17033 -0.03591,0.0718 -0.125794,0.10353 -0.170336,0.17034 -0.07043,0.10564 -0.09991,0.23503 -0.170337,0.34067 -0.08908,0.13362 -0.268851,0.19703 -0.340669,0.34067 -0.0254,0.0508 0.0254,0.11955 0,0.17034 -0.0344,0.0688 -0.676238,0.67623 -0.681344,0.68134 -0.04131,0.0413 -0.50005,0.511 -0.511006,0.511 -0.05678,0 0,-0.11355 0,-0.17033 0,-0.39745 0,-0.7949 0,-1.19235 0,-0.17033 0.04131,-0.34576 0,-0.51101 -0.205634,-0.82254 -0.08095,0.008 -0.340672,-0.511 -0.0254,-0.0508 0.04015,-0.13019 0,-0.17034 -0.04015,-0.0401 -0.130186,0.0402 -0.170334,0 -0.207468,-0.20746 -0.07979,-0.38056 -0.340672,-0.511 -0.05078,-0.0254 -0.113557,0 -0.170336,0 -0.113557,-0.0568 -0.235035,-0.0999 -0.340672,-0.17034 -0.13362,-0.0891 -0.188317,-0.28989 -0.34067,-0.34067 -0.10773,-0.0359 -0.239104,0.0508 -0.340672,0 -0.14364,-0.0718 -0.227113,-0.22712 -0.340672,-0.34067 -0.113557,-0.11356 -0.227113,-0.22712 -0.34067,-0.34067 -0.05678,-0.0568 -0.09851,-0.13443 -0.170336,-0.17034 -0.05078,-0.0254 -0.113556,0 -0.170336,0 -0.113557,0 -0.227113,0 -0.34067,0 -0.170336,0 -0.358656,-0.0762 -0.511008,0 -0.113556,0.0568 -0.09416,0.2391 -0.170336,0.34067 -0.09636,0.12848 -0.25159,0.20705 -0.34067,0.34067 -0.0315,0.0473 0,0.11356 0,0.17034 -0.05678,0.11355 -0.09416,0.2391 -0.170336,0.34067 -0.113556,0.11356 -0.227115,0.22711 -0.340672,0.34067 0,0.0568 0.0254,0.11955 0,0.17034 -0.07182,0.14363 -0.25159,0.20704 -0.340672,0.34067 -0.05678,0.11355 -0.113557,0.22711 -0.170334,0.34067 0,0.0568 0.0254,0.11955 0,0.17033 -0.04549,0.091 -0.421333,0.42134 -0.511008,0.51101 -0.05678,0.0568 -0.09416,0.14495 -0.170336,0.17034 -0.107728,0.0359 -0.227113,0 -0.340669,0 -0.05678,0 -0.119552,-0.0254 -0.170337,0 -0.06803,0.034 -0.415403,0.53188 -0.511008,0.34067 -0.425733,-0.85147 0.52677,0.19004 -0.170333,-0.68134 -0.150485,-0.18811 -0.356794,-0.32596 -0.511009,-0.51101 -0.441753,-0.53011 -0.274629,-0.43107 -0.511005,-1.02201 -0.05678,-0.11356 -0.113559,-0.22712 -0.170336,-0.34068 -0.05678,-0.0568 -0.134427,-0.0985 -0.170337,-0.17033 -0.0254,-0.0508 0.01797,-0.11647 0,-0.17034 -0.04015,-0.12044 -0.130188,-0.22022 -0.170336,-0.34067 -0.03591,-0.10773 0.05078,-0.2391 0,-0.34067 -0.03591,-0.0718 -0.134424,-0.0985 -0.170336,-0.17034 -0.0254,-0.0508 0.05078,-0.14494 0,-0.17033 -0.152352,-0.0762 -0.340669,0 -0.511005,0 -0.455171,0 -0.877282,-0.0679 -1.022014,0.51101 -0.02754,0.11016 0.03591,0.23294 0,0.34067 -0.05078,0.15235 -0.25159,0.20704 -0.340673,0.34067 -0.05678,0.11355 -0.113556,0.22711 -0.170336,0.34067 0,0.0568 0.0254,0.11955 0,0.17034 -0.03591,0.0718 -0.134424,0.0985 -0.170333,0.17033 -0.0254,0.0508 0.0254,0.11955 0,0.17034 -0.03591,0.0718 -0.113559,0.22711 -0.170336,0.17033 -0.05678,-0.0568 0.195728,-0.24651 0.170336,-0.17033 -0.0803,0.24089 -0.199821,0.47006 -0.340672,0.68134 -0.08908,0.13362 -0.244314,0.2122 -0.340673,0.34067 -0.618736,0.82498 0.180322,-0.01 -0.340669,0.51101 -0.05678,0.0568 -0.134427,0.0985 -0.170336,0.17033 -0.250632,0.50127 0.394597,-0.22426 -0.170336,0.34067 -0.05678,0.0568 -0.113557,0.22712 -0.170336,0.17034 -0.05678,-0.0568 0.170336,-0.25063 0.170336,-0.17034 0,0.12696 -0.04338,0.34068 -0.170336,0.34068 -0.658416,0 -0.242525,-0.31472 -0.34067,-0.51101 -0.09155,-0.18311 -0.212786,-0.35115 -0.340672,-0.51101 -0.100322,-0.1254 -0.227113,-0.22711 -0.340672,-0.34067 -0.113557,-0.22711 -0.188318,-0.47821 -0.34067,-0.68134 -0.03407,-0.0454 -0.113559,0 -0.170336,0 -0.170336,-0.17034 -0.38707,-0.30445 -0.511008,-0.51101 -0.05842,-0.0974 0.02754,-0.23051 0,-0.34067 -0.151408,-0.60564 -0.132482,-0.13249 -0.511006,-0.51101 -0.04015,-0.0401 0.0254,-0.11955 0,-0.17033 -0.07796,-0.15592 -0.386527,-0.29918 -0.511008,-0.34067 -0.05386,-0.018 -0.113557,0 -0.170334,0 -0.113559,0 -0.227115,0 -0.340672,0 -0.340672,0 -0.681342,0 -1.022014,0 -0.05678,0 -0.130188,-0.0401 -0.170336,0 -0.08977,0.0898 -0.09991,0.23503 -0.170336,0.34067 -0.04454,0.0668 -0.134424,0.0985 -0.170334,0.17033 -0.0555,0.111 0.05162,0.72262 0,0.85168 -0.07603,0.19008 -0.249121,0.3279 -0.340672,0.51101 -0.04404,0.0881 0.02799,1.02442 0,1.19235 -0.02952,0.1771 -0.135122,0.33494 -0.170336,0.511 -0.183949,0.91975 0.470511,-0.45701 -0.511006,0.85168 -0.03407,0.0454 0,0.11356 0,0.17034 0,0.11355 0,0.22711 0,0.34067 0,0.0568 0.01376,-0.11525 0,-0.17034 -0.371975,-1.48789 0.09155,0.35344 -0.511008,-0.85167 -0.104693,-0.20939 -0.06564,-0.47196 -0.170336,-0.68135 -0.07182,-0.14364 -0.244314,-0.21219 -0.34067,-0.34067 -0.07618,-0.10157 -0.130188,-0.22022 -0.170336,-0.34067 -0.01797,-0.0539 0.03407,-0.12491 0,-0.17034 -0.240892,-0.32119 -0.610788,-0.53049 -0.851677,-0.85167 -0.07618,-0.10157 -0.130189,-0.22023 -0.170337,-0.34067 -0.01797,-0.0539 0.04015,-0.13019 0,-0.17034 -0.08978,-0.0898 -0.239104,-0.0942 -0.340672,-0.17034 -0.128474,-0.0964 -0.227113,-0.22711 -0.340669,-0.34067 -0.06256,-0.0625 -0.667634,-0.68134 -0.681345,-0.68134 -0.258471,0 -0.136403,0.23887 -0.170336,0.34067 -0.04015,0.12045 -0.145436,0.21618 -0.170333,0.34067 -0.03341,0.16703 0,0.34067 0,0.51101 0,0.0568 0.02109,0.11762 0,0.17034 -0.09431,0.23576 -0.210032,0.4636 -0.340673,0.68134 -0.04131,0.0688 -0.144944,0.0942 -0.170336,0.17033 -0.03863,0.11588 0.04516,0.76136 0,0.85168 -0.403661,0.80732 -0.340669,0.19434 -0.340669,0.85168 0,0.39947 0.04015,-0.0803 -0.170336,0.34067 -0.05276,0.10551 0.0504,0.63094 0,0.68134 -0.04015,0.0401 -0.130188,0.0401 -0.170336,0 -0.358259,-0.35826 -0.04745,-0.77623 -0.170336,-1.02201 -0.07182,-0.14364 -0.25159,-0.20705 -0.340673,-0.34067 -0.03149,-0.0472 0.0254,-0.11955 0,-0.17034 -0.03591,-0.0718 -0.144941,-0.0942 -0.170333,-0.17033 -0.07182,-0.21546 0.101568,-0.47821 0,-0.68135 -0.07182,-0.14364 -0.25159,-0.20704 -0.340672,-0.34067 -0.03119,-0.0468 0.01225,-0.64458 0,-0.68134 -0.0254,-0.0762 -0.134427,-0.0985 -0.170336,-0.17033 -0.0489,-0.0978 0.04572,-0.88487 0,-1.02202 -0.0803,-0.24089 -0.227113,-0.45423 -0.340673,-0.68134 z"
       id="path3793"
       inkscape:connector-curvature="0" />
  </g>
</svg>
